# xmcd
#
# Track frame offsets:
#	150
#	16850
#	37497
#	58475
#	78907
#	99282
#	118922
#	134905
#	158230
#	179022
#
# Disc length: 2813 seconds
#
# Revision: 2
# Processed by: cddbd v1.4PL0 Copyright (c) Steve Scherf et al.
# Submitted via: EasyCDDAExtractor 5.0.6
#
DISCID=930afb0a
DTITLE=Bell Biv Devoe - Poison
DYEAR=1990
DGENRE=R&B
TTITLE0=Dope!
TTITLE1=B.B.D. (I Thought It Was Me)?
TTITLE2=Let Me Know Something?!
TTITLE3=Do Me!
TTITLE4=Ronnie, Bobby, Ricky, Mike, Ralph And Johnny (Word To The Mutha)!
TTITLE5=Poison
TTITLE6=Ain't Nut'in' Changed
TTITLE7=When Will I See You Smile Again?
TTITLE8=I Do Need You
TTITLE9=Poison (Extended Club Version)
EXTD=
EXTT0=
EXTT1=
EXTT2=
EXTT3=
EXTT4=
EXTT5=
EXTT6=
EXTT7=
EXTT8=
EXTT9=
PLAYORDER=
